<?xml version="1.0" encoding="UTF-8"?>
<!DOCTYPE svg PUBLIC "-//W3C//DTD SVG 1.1//EN" "http://www.w3.org/Graphics/SVG/1.1/DTD/svg11.dtd">
<!-- Creator: CorelDRAW 2019 (64-Bit) -->
<svg xmlns="http://www.w3.org/2000/svg" xml:space="preserve" width="297mm" height="210mm" version="1.1" style="shape-rendering:geometricPrecision; text-rendering:geometricPrecision; image-rendering:optimizeQuality; fill-rule:evenodd; clip-rule:evenodd"
viewBox="0 0 29700 21000"
 xmlns:xlink="http://www.w3.org/1999/xlink">
 <defs>
  <style type="text/css">
   <![CDATA[
    .str0 {stroke:#B3B3B3;stroke-width:20;stroke-miterlimit:22.9256}
    .fil0 {fill:#B3B3B3}
   ]]>
  </style>
 </defs>
 <g id="Layer_x0020_1">
  <metadata id="CorelCorpID_0Corel-Layer"/>
  <path class="fil0 str0" d="M10601.61 8813.35l2891.16 0 0 6524.38 1363.19 0 0 -6524.38 4438.4 0 0 -1363.19 -8692.75 0c319.09,-1682.71 1797.2,-2955.2 3572.75,-2955.2 1213.67,0 2288.4,594.56 2949,1508.26l1575.92 0c-799.48,-1696.85 -2524.83,-2871.46 -4524.92,-2871.46 -2761.42,0 -5000,2238.57 -5000,5000 0,2458.7 1774.67,4502.87 4112.93,4921.53l0 -1393.72c-1363.52,-341.82 -2421.57,-1453.51 -2685.68,-2846.22zm4459.83 4239.76c1544.3,-276.55 2842.52,-1262.22 3546.15,-2608.02l-1627.17 0c-486.36,589.23 -1154.68,1022.71 -1918.98,1214.31l0 1393.71z"/>
 </g>
</svg>
